<?xml version="1.0" encoding="utf-8"?>
<!-- Generator: Adobe Illustrator 26.4.0, SVG Export Plug-In . SVG Version: 6.00 Build 0)  -->
<svg version="1.1" id="Layer_1" xmlns="http://www.w3.org/2000/svg" xmlns:xlink="http://www.w3.org/1999/xlink" x="0px" y="0px"
	 viewBox="0 0 3600 3600" style="enable-background:new 0 0 3600 3600;" xml:space="preserve">
<style type="text/css">
	.st0{display:none;}
	.st1{clip-path:url(#SVGID_00000172422066140690586600000011664326590331080615_);}
	.st2{clip-path:url(#SVGID_00000088848631246382013210000004677676476167092111_);}
	.st3{clip-path:url(#SVGID_00000039114989217975916810000003971538180308953018_);}
	.st4{fill:#900010;}
	.st5{fill:#000300;}
	.st6{display:inline;fill:#000300;}
	.st7{display:inline;fill:#900010;}
	.st8{fill:#F79E1B;}
	.st9{font-family:'DejaVuSans-Bold';}
	.st10{font-size:270.7031px;}
	.st11{letter-spacing:14;}
	.st12{font-family:'FuturaPT-ExtraBold';}
	.st13{font-size:275px;}
	.st14{letter-spacing:15;}
	.st15{display:inline;fill:#FFFFFF;}
</style>
<rect class="st0" width="3600" height="3600"/>
<g>
	<defs>
		<rect id="SVGID_1_" x="918.25" y="714.52" width="1763.49" height="2042.86"/>
	</defs>
	<clipPath id="SVGID_00000008862885152428951230000010445270530013921446_">
		<use xlink:href="#SVGID_1_"  style="overflow:visible;"/>
	</clipPath>
	<g style="clip-path:url(#SVGID_00000008862885152428951230000010445270530013921446_);">
		<defs>
			<polygon id="SVGID_00000038403703945194701910000001830293968489393065_" points="2672.68,1216.55 1800.01,712.8 927.32,1216.55 
				927.32,2224.06 1800.01,2727.9 2672.68,2224.06 			"/>
		</defs>
		<clipPath id="SVGID_00000018936760430071740440000015151955018285650320_">
			<use xlink:href="#SVGID_00000038403703945194701910000001830293968489393065_"  style="overflow:visible;"/>
		</clipPath>
		<g style="clip-path:url(#SVGID_00000018936760430071740440000015151955018285650320_);">
			<defs>
				<rect id="SVGID_00000049202074448881833180000004751694093352873374_" x="59.77" y="-19.88" width="3480.47" height="3480.47"/>
			</defs>
			<clipPath id="SVGID_00000155857620675806758180000006112052381278481042_">
				<use xlink:href="#SVGID_00000049202074448881833180000004751694093352873374_"  style="overflow:visible;"/>
			</clipPath>
			<g style="clip-path:url(#SVGID_00000155857620675806758180000006112052381278481042_);">
				<rect x="-7.04" y="-536.8" class="st4" width="451.58" height="451.5"/>
				<rect x="896.3" y="-536.8" class="st4" width="451.58" height="451.5"/>
				<rect x="1799.62" y="-536.8" class="st4" width="451.58" height="451.5"/>
				<rect x="2702.87" y="-536.8" class="st4" width="451.58" height="451.5"/>
				<rect x="3606.21" y="-536.8" class="st4" width="451.58" height="451.5"/>
				<rect x="-457.8" y="-86.22" class="st4" width="451.58" height="451.58"/>
				<rect x="445.54" y="-86.22" class="st4" width="451.58" height="451.58"/>
				<rect x="1348.8" y="-86.22" class="st4" width="451.58" height="451.58"/>
				<rect x="2252.11" y="-86.22" class="st4" width="451.58" height="451.58"/>
				<rect x="3155.45" y="-86.22" class="st4" width="451.58" height="451.58"/>
				<rect x="-7.04" y="365.54" class="st4" width="451.58" height="451.58"/>
				<rect x="896.3" y="365.54" class="st4" width="451.58" height="451.58"/>
				<rect x="1799.62" y="365.54" class="st4" width="451.58" height="451.58"/>
				<rect x="2702.87" y="365.54" class="st4" width="451.58" height="451.58"/>
				<rect x="3606.21" y="365.54" class="st4" width="451.58" height="451.58"/>
				<rect x="-457.8" y="816.29" class="st4" width="451.58" height="451.58"/>
				<rect x="445.54" y="816.29" class="st4" width="451.58" height="451.58"/>
				<rect x="1348.8" y="816.29" class="st4" width="451.58" height="451.58"/>
				<rect x="2252.11" y="816.29" class="st4" width="451.58" height="451.58"/>
				<rect x="3155.45" y="816.29" class="st4" width="451.58" height="451.58"/>
				<rect x="-7.04" y="1267.88" class="st4" width="451.58" height="451.58"/>
				<rect x="896.3" y="1267.88" class="st4" width="451.58" height="451.58"/>
				<rect x="1799.62" y="1267.88" class="st4" width="451.58" height="451.58"/>
				<rect x="2702.87" y="1267.88" class="st4" width="451.58" height="451.58"/>
				<rect x="3606.21" y="1267.88" class="st4" width="451.58" height="451.58"/>
				<rect x="-457.8" y="1718.64" class="st4" width="451.58" height="451.58"/>
				<rect x="445.54" y="1718.64" class="st4" width="451.58" height="451.58"/>
				<rect x="1348.8" y="1718.64" class="st4" width="451.58" height="451.58"/>
				<rect x="2252.11" y="1718.64" class="st4" width="451.58" height="451.58"/>
				<rect x="3155.45" y="1718.64" class="st4" width="451.58" height="451.58"/>
				<rect x="-7.04" y="2170.37" class="st4" width="451.58" height="451.58"/>
				<rect x="896.3" y="2170.37" class="st4" width="451.58" height="451.58"/>
				<rect x="1799.62" y="2170.37" class="st4" width="451.58" height="451.58"/>
				<rect x="2702.87" y="2170.37" class="st4" width="451.58" height="451.58"/>
				<rect x="3606.21" y="2170.37" class="st4" width="451.58" height="451.58"/>
				<rect x="-457.8" y="2621.13" class="st4" width="451.58" height="451.58"/>
				<rect x="445.54" y="2621.13" class="st4" width="451.58" height="451.58"/>
				<rect x="1348.8" y="2621.13" class="st4" width="451.58" height="451.58"/>
				<rect x="2252.11" y="2621.13" class="st4" width="451.58" height="451.58"/>
				<rect x="3155.45" y="2621.13" class="st4" width="451.58" height="451.58"/>
				<rect x="-7.04" y="3072.71" class="st4" width="451.58" height="451.58"/>
				<rect x="896.3" y="3072.71" class="st4" width="451.58" height="451.58"/>
				<rect x="1799.62" y="3072.71" class="st4" width="451.58" height="451.58"/>
				<rect x="2702.87" y="3072.71" class="st4" width="451.58" height="451.58"/>
				<rect x="3606.21" y="3072.71" class="st4" width="451.58" height="451.58"/>
				<rect x="-457.8" y="3523.47" class="st4" width="451.58" height="451.58"/>
				<rect x="445.54" y="3523.47" class="st4" width="451.58" height="451.58"/>
				<rect x="1348.8" y="3523.47" class="st4" width="451.58" height="451.58"/>
				<rect x="2252.11" y="3523.47" class="st4" width="451.58" height="451.58"/>
				<rect x="3155.45" y="3523.47" class="st4" width="451.58" height="451.58"/>
			</g>
			<g style="clip-path:url(#SVGID_00000155857620675806758180000006112052381278481042_);">
				<rect x="3606.21" y="3523.47" class="st5" width="451.58" height="451.58"/>
				<rect x="2702.89" y="3523.47" class="st5" width="451.58" height="451.58"/>
				<rect x="1799.55" y="3523.47" class="st5" width="451.58" height="451.58"/>
				<rect x="896.3" y="3523.47" class="st5" width="451.58" height="451.58"/>
				<rect x="-7.04" y="3523.47" class="st5" width="451.58" height="451.58"/>
				<rect x="3155.31" y="3071.89" class="st5" width="451.5" height="451.58"/>
				<rect x="2252.14" y="3071.89" class="st5" width="451.58" height="451.58"/>
				<rect x="1348.8" y="3071.89" class="st5" width="451.58" height="451.58"/>
				<rect x="445.46" y="3071.89" class="st5" width="451.58" height="451.58"/>
				<rect x="-457.8" y="3071.89" class="st5" width="451.58" height="451.58"/>
				<rect x="3606.21" y="2620.96" class="st5" width="451.58" height="451.58"/>
				<rect x="2702.89" y="2620.96" class="st5" width="451.58" height="451.58"/>
				<rect x="1799.55" y="2620.96" class="st5" width="451.58" height="451.58"/>
				<rect x="896.3" y="2620.96" class="st5" width="451.58" height="451.58"/>
				<rect x="-7.04" y="2620.96" class="st5" width="451.58" height="451.58"/>
				<rect x="3155.31" y="2169.54" class="st5" width="451.5" height="451.58"/>
				<rect x="2252.14" y="2169.54" class="st5" width="451.58" height="451.58"/>
				<rect x="1348.8" y="2169.54" class="st5" width="451.58" height="451.58"/>
				<rect x="445.46" y="2169.54" class="st5" width="451.58" height="451.58"/>
				<rect x="-457.8" y="2169.54" class="st5" width="451.58" height="451.58"/>
				<rect x="3606.21" y="1718.79" class="st5" width="451.58" height="451.58"/>
				<rect x="2702.89" y="1718.79" class="st5" width="451.58" height="451.58"/>
				<rect x="1799.55" y="1718.79" class="st5" width="451.58" height="451.58"/>
				<rect x="896.3" y="1718.79" class="st5" width="451.58" height="451.58"/>
				<rect x="-7.04" y="1718.79" class="st5" width="451.58" height="451.58"/>
				<rect x="3155.31" y="1267.05" class="st5" width="451.5" height="451.58"/>
				<rect x="2252.14" y="1267.05" class="st5" width="451.58" height="451.58"/>
				<rect x="1348.8" y="1267.05" class="st5" width="451.58" height="451.58"/>
				<rect x="445.46" y="1267.05" class="st5" width="451.58" height="451.58"/>
				<rect x="-457.8" y="1267.05" class="st5" width="451.58" height="451.58"/>
				<rect x="3606.21" y="816.29" class="st5" width="451.58" height="451.58"/>
				<rect x="2702.89" y="816.29" class="st5" width="451.58" height="451.58"/>
				<rect x="1799.55" y="816.29" class="st5" width="451.58" height="451.58"/>
				<rect x="896.3" y="816.29" class="st5" width="451.58" height="451.58"/>
				<rect x="-7.04" y="816.29" class="st5" width="451.58" height="451.58"/>
				<rect x="3155.31" y="364.71" class="st5" width="451.5" height="451.58"/>
				<rect x="2252.14" y="364.71" class="st5" width="451.58" height="451.58"/>
				<rect x="1348.8" y="364.71" class="st5" width="451.58" height="451.58"/>
				<rect x="445.46" y="364.71" class="st5" width="451.58" height="451.58"/>
				<rect x="-457.8" y="364.71" class="st5" width="451.58" height="451.58"/>
				<rect x="3606.21" y="-86.05" class="st5" width="451.58" height="451.58"/>
				<rect x="2702.89" y="-86.05" class="st5" width="451.58" height="451.58"/>
				<rect x="1799.55" y="-86.05" class="st5" width="451.58" height="451.58"/>
				<rect x="896.3" y="-86.05" class="st5" width="451.58" height="451.58"/>
				<rect x="-7.04" y="-86.05" class="st5" width="451.58" height="451.58"/>
				<rect x="3155.31" y="-537.8" class="st5" width="451.5" height="451.58"/>
				<rect x="2252.14" y="-537.8" class="st5" width="451.58" height="451.58"/>
				<rect x="1348.8" y="-537.8" class="st5" width="451.58" height="451.58"/>
				<rect x="445.46" y="-537.8" class="st5" width="451.58" height="451.58"/>
				<rect x="-457.8" y="-537.8" class="st5" width="451.58" height="451.58"/>
			</g>
		</g>
	</g>
</g>
<g class="st0">
	<path class="st6" d="M1800,842.49l775.7,447.78v895.57L1800,2633.68l-775.72-447.85v-895.57L1800,842.49 M1800,763.11l-34.37,19.84
		l-775.72,447.78l-34.38,19.85v39.7v895.57v39.69l34.38,19.85l775.72,447.85l34.37,19.85l34.37-19.85l775.7-447.85l34.38-19.85
		v-39.69v-895.57v-39.7l-34.38-19.85l-775.7-447.78L1800,763.11L1800,763.11z"/>
</g>
<g class="st0">
	<path class="st7" d="M1800.01,933.6l687.49,396.86v793.7l-687.49,396.92l-687.51-396.93v-793.7L1800.01,933.6 M1800.01,824.45
		l-782.04,451.42v902.86l782.04,451.5l782.02-451.5v-902.86L1800.01,824.45L1800.01,824.45z"/>
</g>
<g>
	<path class="st4" d="M1800.01,821.23l802.43,449.54v899.09l-802.43,449.61l-802.45-449.61v-899.09L1800.01,821.23 M1800.01,703.02
		l-50.4,28.24L947.16,1180.8l-52.72,29.54v60.43v899.09v60.43l52.72,29.54l802.45,449.61l50.41,28.24l50.41-28.24l802.43-449.61
		l52.72-29.54v-60.43v-899.09v-60.43l-52.72-29.54l-802.43-449.54L1800.01,703.02L1800.01,703.02z"/>
</g>
<g class="st0">
	<path class="st7" d="M1800.01,933.83l733.27,399.29v788.37l-733.27,399.36l-733.29-399.36v-788.37L1800.01,933.83 M1800.01,816.41
		l-836.41,455.45v910.91l836.41,455.52l836.4-455.52v-910.91L1800.01,816.41L1800.01,816.41z"/>
</g>
<path class="st8" d="M1764.81,837.19c0,0-0.89-23.58,21.84-32.97c22.85-8.66,57.3-8.66,57.3-8.66S1827.52,831.63,1764.81,837.19z
	 M1742.82,734.47c0,0,12.48,29.74-15.68,40.74c-29.01,10.24-68.27,10.97-72.95,29.01c-3.86,17.29,4.68,28.26,4.68,28.26
	s-54.8,16.44-81.48,14.1c-25.92-2.37-45.45,0-50.13,17.26c-3.95,18.05,14.82,39.16,14.82,39.16s0,36.03,22.69,54.93
	c4.84,4.68,11.85,7.78,20.39,10.11c0,0,7.9,20.39,19.63,29.01c11.73,8.66,14.95,7.05,14.95-4.68c0-6.29-0.76-14.95-0.76-21.97
	c17.16-1.61,34.45-5.44,47.06-12.48c28.13-14.19,60.37-25.92,87.77-18.14c27.4,7.14,47.79,86.28-4.68,101.96
	c-52.62,16.43-58.91,8.66-67.42-1.58c-8.66-10.15-22-17.16-24.34,0c-2.34,17.26-5.56,32.97-5.56,32.97s-16.4,6.29-7.78,35.3
	c8.66,28.13,56.42,32.08,77.53,13.34c18.05-15.71,25.19-46.3,51.87-56.54c1.49,0,35.18-16.44,70.51-7.81
	c35.3,8.66,136.41,17.29,161.47-58.76c24.31-75.32-15.68-123.07-15.68-123.07s80.72,92.45,25.06,177.88
	c-54.84,85.46-148.9,35.34-181.13,46.3c-2.34,0.76-4.68,1.61-7.02,2.34c-1.49,18.05-13.34,37.67-39.16,53.35
	c-58.03,34.45-141.09,63.46-174.81,193.59c-34.58,130.88,54.8,185.05,58.03,248.52c3.1,62.74-49.37,105.82-49.37,105.82
	s83.06-6.29,109.74-73.71c25.82-68.14-4.68-116.78-4.68-116.78s38.4,50.22,35.18,107.4c-3.1,57.27-21.97,76.8-21.97,76.8
	s74.56-22.72,84.67-84.58c11-61.25-18.02-102.72-18.02-102.72s54.08-3.22,61.13,64.19c7.9,67.54-32.11,90.99-32.11,90.99
	s49.4,40.01,90.99-29.01c41.47-69.75,12.48-108.16,12.48-108.16s36.88,32.11,46.27,81.48c8.66,49.4,8.66,80.03,8.66,80.03
	s55.69-79.14,52.47-120.01c-3.1-40.74-14.82-79.9-14.82-79.9s21.11,89.41,86.92,101.87c66.69,11.73,95.7,3.22,95.7,3.22
	s-70.51,1.45-90.87-90.99c-19.66-92.48,12.45-140.39,4.68-210.88c-7.17-71.37-21.24-116.78-21.24-116.78s55.69,64.19,75.32,142.57
	c20.35,78.41,4.68,111.38,4.68,111.38s38.4-29.77,40.01-105.09c1.49-75.16-17.29-134.07-41.59-172.47
	c-24.34-38.37-35.34-44.69-35.34-44.69s44.69,36.06,94.94,40.87c49.4,4.71,69.03-17.29,69.03-17.29s-51.87-5.53-86.32-57.27
	c-34.42-51.74-36.03-69.75-36.03-69.75s32.08,40.01,82.33,32.21c50.13-7.9,77.53-39.98,77.53-39.98s-65.8-7.9-96.4-25.19
	c-29.77-16.43-40.74-45.45-40.74-45.45s45.42,10.27,81.48-14.06c36.92-25.06,45.54-69,45.54-69s-32.21,24.3-87.77,18.02
	c-54.96-6.29-58.03-43.84-104.33-58.79c-46.3-14.06-58.76-14.92-58.76-14.92s37.64-6.29,87.77,9.39
	c50.13,14.92,101.87-27.43,101.87-27.43s-49.4,10.27-87.8-19.63c-38.4-30.47-69.75-35.18-96.43-32.08
	c-25.79,3.95-36.79,11.73-36.79,11.73s19.63-31.35,66.69-30.5c47.76,0.73,76.77-29.87,76.77-29.87s-53.32,9.51-81.61-6.19
	c-28.89-16.53-98.77,4.71-98.77,4.71s13.34-29.87,36.06-38.4c22.85-8.63,41.59-10.24,41.59-10.24s-53.32-25.82-91.72-4.71
	c-39.13,21.11-55.69,47.79-55.69,47.79s11.85-28.16,7.9-58.03c-3.95-29.74-15.68-40.74-15.68-40.74s-3.95,62.71-61.98,71.37
	C1825.18,643.48,1741.24,659.15,1742.82,734.47z M1752.96,1010.39c0,0,1.58-37.64-47.79-38.4c-48.64-0.73-70.51,64.32-122.35,51.01
	c-51.74-13.34-56.42-62.74-103.48-59.64c-47.76,3.07-61.85,32.08-61.85,32.08s53.22-12.45,79.14,32.97
	c25.95,45.45,96.43,51.01,123.83,34.45C1635.42,1054.36,1709.85,943.73,1752.96,1010.39z M1617.4,1270.67
	c-10.27-2.37-21.24-3.1-30.63-3.1c-66.69,0-155.19-36.92-155.19-36.92s-36.06-38.4-42.35-90.14c-6.29-51.71-58.79-53.32-58.79-53.32
	s-39.98-43.08-82.33-37.67c-41.5,5.56-39.13,25.19-39.13,25.19s41.47,8.66,45.42,47.79c4.71,39.13-10.24,53.35,18.77,70.48
	c29.01,16.56,41.59,26.68,41.59,26.68s-35.3-28.13-95.67,8.66c-61.13,37.64-47.03,91.72-56.42,94.06
	c-8.66,2.34,43.93-41.47,73.71-16.4c29.74,25.79,55.69,75.19,116.78,58.76c60.37-15.68,154.46,5.56,205.44,43.96l23.45,17.16
	c-2.34-25.82,0-53.22,7.05-82.24C1596.17,1317.7,1605.65,1292.63,1617.4,1270.67z M1844.68,1945.61
	c-16.43,21.24-40.74,37.64-77.53,40.74c-101.11,7.17-220.39-9.39-254.08,107.4c-34.45,116.06,12.58,236.82-28.16,290.9
	c-41.59,54.93-70.61,63.43-70.61,63.43s-50.13-26.52-83.85-11.73c-33.69,14.95-31.35,26.68-31.35,26.68s-31.35,5.56-43.08,25.06
	c-11.85,19.63-7.17,31.35-7.17,31.35s20.51-19.5,32.96-19.5c12.61,0,17.29,4.68,17.29,4.68s-10.97,12.48-6.29,31.39
	c3.95,18.74,9.39,25.06,9.39,25.06s-20.39,14.06-18.77,35.3c0.76,21.11,13.34,29.74,13.34,29.74s1.49-29.74,16.44-33.69
	c14.92-3.22,30.59,3.95,47.03-7.9c17.29-11.73,23.58-22.72,23.58-22.72s-4.71,22.72,0,28.29c5.44,6.29,10.87,6.29,10.87,6.29
	s-3.1,25.06,10.24,38.4c12.58,13.34,19.63,3.07,19.63,3.07s-3.95-8.63-2.34-24.31c1.49-16.43,22.69-8.66,33.69-27.4
	c11-19.63,13.34-32.97,13.34-32.97s55.69-50.13,147.28-58.03c90.99-7.05,136.44-15.68,131.73-97.92
	c-4.68-81.61-29.74-185.05,5.56-217.89c33.69-31.39,98.77,31.35,186.54-8.66c1.61-37.64,6.32-76.04,13.34-112.96l2.34-9.39
	C1941.97,2001.3,1891.71,1969.19,1844.68,1945.61z M1667.5,1744.98c12.61,31.38,51.74,115.2,143.49,158.28
	c111.35,53.35,156.04,87.9,169.38,144.34c-14.19,65.05-22.72,136.41-10.24,206.89c24.3,132.49,130.98,188.18,139.51,248.55
	c8.63,61.09-79.14,152.09-79.14,152.09s-32.96-24.3-77.53-14.06c-45.58,10.11-51.01,31.35-51.01,31.35s-35.3-3.95-47.88,15.68
	c-13.21,19.5-2.34,42.23-2.34,42.23s10.97-23.45,32.21-17.16c21.11,5.44,24.34,18.02,40.01,17.16c16.4-1.49-19.63,18.02-14.19,36.06
	c5.53,18.87-14.1,14.19-11.76,38.5c1.61,24.21,19.66,32.11,19.66,32.11s4.68-28.26,13.31-36.06c8.66-7.9,17.16,13.34,36.79,7.81
	c18.9-4.71,19.66-6.19,19.66-6.19s-14.1,20.39-5.56,32.11c9.51,12.58,20.48,17.29,20.48,17.29s-13.34,26.64,3.1,38.4
	c16.4,12.45,23.45,11.73,23.45,11.73s-16.4-27.4-3.1-47.06c12.61-19.63,19.63-14.06,25.95-31.35c5.44-18.02,34.45,9.39,68.87-29.74
	c34.58-38.4,11.85-65.93,11.85-65.93s202.97-148.17,164.57-232.84c-38.37-83.85-67.38-123.83-33.69-199.91
	c29.01-65.05,98.04-188.15,49.4-333.95c45.42,6.29,143.46-0.73,218.75-144.19c101.87-192.13-87.77-389.67-87.77-389.67
	s1.49-9.36,28.16-17.26c25.92-7.81,56.42,7.14,56.42,7.14s2.34-25.92-29.77-45.54c-32.08-19.63-56.42-12.48-56.42-12.48
	s23.45,0,46.18-35.3c23.58-35.3-14.82-97.16-14.82-97.16s-1.58,28.13-20.35,50.85c-18.02,23.58-49.4,18.9-49.4,18.9
	s36.79-60.37,25.06-112.11c-12.58-52.59-43.08-58.88-43.08-58.88s-81.61,73.71-72.22,178.76c8.63,104.33,67.54,138.02,131.73,252.47
	c65.08,113.59,31.35,261-67.42,295.58c-67.42,22.69-132.46-16.56-166.91-43.21l-3.95-3.86c-11.73-9.48-19.63-17.26-21.24-18.87
	c-25.79-26.68-65.08-82.24-61.13-168.52v-1.61c-3.95-0.73-7.02-1.49-10.11-2.34c-18.02-3.1-32.97-11-47.03-21.11
	c-7.9,37.64-35.3,83.82-54.2,110.49l-22.72,32.21c-7.77-0.85-14.06,0-20.35,0v-46.27c0-22.72-3.95-51.01-8.66-73.71
	c-3.82,11.73-9.39,22.69-14.79,32.08c-27.43,45.58-80.03,72.98-126.33,35.3l-5.4-4.68c-18.77,19.63-43.11,33.69-67.42,41.59
	L1667.5,1744.98z M1593.07,1476.83c-30.63,9.39-78.38,29.74-138.78,78.38c-105.79,84.7-126.17,100.38-161.48,75.32
	c-34.45-25.19,16.44-88.62-14.06-123.07c-30.63-35.34-76.08-23.58-76.08-23.58s-21.97-12.48-78.38,0
	c-56.42,12.58-72.09,60.37-72.09,60.37s37.52-17.29,66.53-5.44c29.01,11,34.58,23.45,34.58,23.45s-29.01,6.29-38.4,28.29
	c-10.24,22.69-11,30.47-11,30.47s-32.21-6.16-54.93,31.38c-22.72,36.92-1.49,75.29-1.49,75.29s2.34-33.69,25.06-37.64
	c23.45-4.68,30.5-4.68,30.5-4.68s2.34,44.69,47.03,47.03c44.69,1.61,49.4-4.71,49.4-4.71s-30.5,47.79,31.35,59.64
	c61.98,11.73,75.32-19.63,106.67-11.85c31.35,7.9,76.8,4.71,112.11-19.5c35.3-24.34,94.09-62.71,139.51-65.93c3.95,0,7.9,0,11.73,0
	l5.56-4.68c24.31-19.63,42.35-55.69,40.74-87.04c-1.61-25.06-29.01-65.8-40.74-89.38
	C1600.84,1498.07,1597.02,1487.83,1593.07,1476.83z"/>
<path class="st8" d="M876.1,2940.21c-0.68-1.85-0.96-68.48-0.61-147.94l0.68-144.59l923.07-0.68l923.07-0.61v297.3h-922.46
	C1064.41,2943.69,877.12,2943.01,876.1,2940.21z M2806.97,3029.09c-79.93-2.6-145.76-5.19-146.37-5.8
	c-0.61-0.61,17.39-12.9,39.97-27.29l41-26.19v-105.3l0.07-105.37l79.11,1.76c43.58,0.96,110.14,2.53,147.99,3.49l68.76,1.69
	l-66.84,60.43c-37.1,33.56-66.23,61.93-65.48,63.78c0.68,1.9,21.48,33.54,46.17,70.31c24.69,36.82,45.9,68.55,47.14,70.45
	C3001.22,3035.36,3000.19,3035.29,2806.97,3029.09z M599.81,3032.84c0.61-1.31,22.58-34.52,48.82-73.67
	c45.9-68.55,47.54-71.41,42.64-75.99c-2.79-2.58-32.88-30-66.91-60.9l-61.86-56.2l68.74-1.76c37.78-0.96,104.36-2.46,147.87-3.35
	l79.18-1.62v210.54l41.28,26.61l41.33,26.52l-22.72,1.57c-12.48,0.89-70.38,2.86-128.7,4.36c-58.32,1.57-125.09,3.61-148.34,4.64
	C616.64,3034.53,599.18,3034.27,599.81,3032.84z M2607,3022.8c3.2-7.91,9.81-24.95,14.72-37.85l9.01-23.38l44.94-0.75
	c24.76-0.42,44.4-0.21,43.65,0.54c-2.39,2.44-115.47,75.92-116.76,75.92C2601.88,3037.28,2603.86,3030.78,2607,3022.8z
	 M962.92,3016.25c-17.39-11.31-44.05-28.57-59.19-38.26l-27.55-17.74h91.32l11.26,28.25c6.2,15.54,13.23,32.86,15.61,38.53
	c2.46,5.73,3.47,10.23,2.32,10.16c-1.15-0.14-16.36-9.48-33.77-20.81V3016.25z"/>
<text transform="matrix(1 0 0 1 1010.6841 2902.6702)" class="st0 st9 st10 st11">BAM CITY</text>
<g>
	<g>
		<path d="M1059.41,2902.67v-207.35h71.23c15.22,0,28.64,1.74,40.29,5.22c11.64,3.48,20.85,9.26,27.64,17.33
			c6.78,8.07,10.17,18.61,10.17,31.62c0,6.6-1.1,12.79-3.3,18.56c-2.2,5.77-5.23,10.82-9.08,15.12c-3.85,4.31-8.16,7.56-12.92,9.76
			v0.27c8.8,2.93,16.27,6.88,22.41,11.83c6.14,4.95,10.77,10.77,13.89,17.46c3.12,6.69,4.67,14.16,4.67,22.41
			c0,13.93-3.71,25.21-11.14,33.83c-7.43,8.62-16.87,14.76-28.33,18.42c-11.46,3.67-23.61,5.5-36.44,5.5H1059.41z M1124.31,2777.54
			c5.31,0,9.99-0.69,14.02-2.06c4.03-1.38,7.1-3.48,9.21-6.33c2.11-2.84,3.16-6.55,3.16-11.14c0-4.4-0.87-7.88-2.61-10.45
			c-1.74-2.57-4.49-4.49-8.25-5.78c-3.76-1.28-8.76-1.92-14.99-1.92h-5.5v37.67H1124.31z M1131.46,2858.39
			c6.97,0,12.74-0.59,17.32-1.79c4.58-1.19,8.29-3.3,11.14-6.33c2.84-3.02,4.26-7.19,4.26-12.51c0-5.5-1.33-9.76-3.99-12.79
			c-2.66-3.03-6.32-5.18-11-6.46c-4.67-1.28-10.5-1.92-17.46-1.92h-12.38v41.8H1131.46z"/>
		<path d="M1247.51,2902.67l78.1-207.35h65.18l78.65,207.35h-69.3l-31.07-106.7c-6.78-23.46-12.47-44.27-17.05-62.42h12.65
			c-2.75,10.45-5.59,20.86-8.53,31.21c-2.93,10.36-5.87,20.58-8.8,30.66l-33.55,107.25H1247.51z M1311.04,2869.95v-44.28h91.57
			v44.28H1311.04z"/>
		<path d="M1601.71,2902.67l-37.68-114.95l-15.4,114.95h-61.32l35.47-207.35h60.23l38.5,116.32l38.77-116.32h59.95l34.38,207.35
			h-63.52l-13.75-114.95l-40.7,114.95H1601.71z"/>
		<path d="M1975.7,2906.25c-19.43,0-37.22-4.67-53.35-14.03c-16.13-9.35-28.88-22.09-38.22-38.22
			c-9.35-16.13-14.03-33.92-14.03-53.35c0-19.8,4.81-38.04,14.44-54.72c9.62-16.68,22.69-29.88,39.19-39.6
			c16.5-9.72,34.83-14.58,55-14.58c8.8,0,17.46,0.87,25.99,2.61c8.53,1.74,17,4.36,25.44,7.84l1.65,68.2
			c-7.88-7.33-15.72-12.74-23.51-16.22c-7.79-3.48-15.72-5.22-23.79-5.22c-8.44,0-16.5,2.06-24.2,6.19s-13.93,10.04-18.7,17.74
			c-4.77,7.7-7.15,16.5-7.15,26.4c0,9.17,2.29,17.56,6.88,25.16c4.58,7.61,10.77,13.61,18.56,18.01c7.79,4.4,16.27,6.6,25.44,6.6
			c6.05,0,11.73-0.78,17.05-2.34c5.31-1.55,10.31-3.8,14.99-6.74c4.67-2.93,9.49-6.69,14.44-11.27l-1.65,67.38
			c-6.42,3.12-14.9,5.59-25.44,7.42C1994.17,2905.33,1984.5,2906.25,1975.7,2906.25z"/>
		<path d="M2076.63,2902.67v-207.35h62.15v207.35H2076.63z"/>
		<path d="M2217.43,2902.67v-150.42h-43.17v-56.92h150.42v56.92h-43.17v150.42H2217.43z"/>
		<path d="M2412.13,2902.67v-89.38l-71.23-117.97h72.6l30.52,62.15l28.88-62.15h72.33l-70.4,117.97v89.38H2412.13z"/>
	</g>
</g>
<text transform="matrix(1 0 0 1 1078.8042 2902.6702)" class="st0 st12 st13 st14">BAM CITY</text>
<g class="st0">
	<path class="st15" d="M1800,68.75c117.51,0,234.92,11.83,348.98,35.17c111.12,22.74,220.43,56.67,324.88,100.85
		c102.57,43.38,201.5,97.08,294.05,159.61c91.69,61.94,177.91,133.08,256.27,211.44c78.36,78.36,149.5,164.58,211.44,256.27
		c62.52,92.55,116.22,191.48,159.61,294.05c44.18,104.45,78.11,213.76,100.85,324.88c23.34,114.06,35.17,231.47,35.17,348.98
		s-11.83,234.92-35.17,348.98c-22.74,111.12-56.67,220.43-100.85,324.88c-43.38,102.57-97.08,201.5-159.61,294.05
		c-61.94,91.69-133.08,177.91-211.44,256.27c-78.36,78.36-164.58,149.5-256.27,211.44c-92.55,62.52-191.48,116.22-294.05,159.61
		c-104.45,44.18-213.75,78.11-324.88,100.85c-114.06,23.34-231.47,35.17-348.98,35.17s-234.92-11.83-348.98-35.17
		c-111.12-22.74-220.43-56.67-324.88-100.85c-102.57-43.38-201.5-97.08-294.05-159.61c-91.69-61.94-177.91-133.08-256.27-211.44
		c-78.36-78.36-149.5-164.58-211.44-256.27c-62.52-92.55-116.22-191.48-159.61-294.05c-44.18-104.45-78.11-213.75-100.85-324.88
		C80.58,2034.92,68.75,1917.51,68.75,1800s11.83-234.92,35.17-348.98c22.74-111.12,56.67-220.43,100.85-324.88
		c43.38-102.57,97.08-201.5,159.61-294.05c61.94-91.69,133.08-177.91,211.44-256.27c78.36-78.36,164.58-149.5,256.27-211.44
		c92.55-62.52,191.48-116.22,294.05-159.61c104.45-44.18,213.76-78.11,324.88-100.85C1565.08,80.58,1682.49,68.75,1800,68.75
		 M1800,0C805.89,0,0,805.89,0,1800s805.89,1800,1800,1800s1800-805.89,1800-1800S2794.11,0,1800,0L1800,0z"/>
</g>
</svg>
